# xmcd
# 
# Track frame offsets:
#     150
#     11326
#     24219
#     36463
#     47540
#     58526
#     71746
#     84898
#     98040
#     111289
#     122293
#     132903
#     150595
#     164066
#     173929
#     190194
#     200330
#     212083
#     223011
#     230971
#     238886
#     250875
#     264727
#     276145
# 
# Disc length: 3877
# 
# Revision: 5
# Processed by: cddbd v1.5.2PL0 Copyright (c) Steve Scherf et al.
# Submitted via: fre:ac v1.0.31
# 
DISCID=570f2318
DTITLE=Various Artist - As Good As It Gets - Cajun [CD 2)
DYEAR=2000
DGENRE=Folk
TTITLE0=Jimmy C. Newman - Lache Pas La Patate
TTITLE1=Lawrence Walker - 'Tits Yeux Noires
TTITLE2=Aldus Roger - KFLY Waltz
TTITLE3=Alex Broussard - L'Annee De Cinquante Sept
TTITLE4=Doris Matte - Tracks Of My Buggy
TTITLE5=Belton Richard - Oh Yea Yi
TTITLE6=J.B. Fuselier - Chere Tu Tu
TTITLE7=Aldus Roger - One More Chance
TTITLE8=Cleoma B. Falcon - J'ai Passe Devant Ta Porte
TTITLE9=Rufus Thibodeaux - Pauvre Hobo
TTITLE10=Austin Pitre - Les Flammes D'Enfer
TTITLE11=Robert Elkins - I'd Rather Have Lost You
TTITLE12=Lawrence Walker - Chere Alice
TTITLE13=Aldus Roger - Lafayette Two Step
TTITLE14=Nathan Abshire - Belisaire Waltz
TTITLE15=Joe Bonsall - Step It Fast
TTITLE16=Harry Choates - Lake Charles Shuffle
TTITLE17=Blackie Forestier - La Valse D'Anniversaire
TTITLE18=The Balfa Brothers - Two Step a Hadley
TTITLE19=Jimmy C. Newman - Hippy Ti Yo
TTITLE20=Doc Guidry - La Valse De Amité (Friendship Waltz)
TTITLE21=Vin Bruce - Dans La Louisanne
TTITLE22=Doc Guidry - Tee Maurice Waltz
TTITLE23=Cleoma B. Falcon - Raise Your Window High
EXTD=DISKY. DO 250552. Printed in EU.
EXTT0=
EXTT1=
EXTT2=
EXTT3=
EXTT4=
EXTT5=
EXTT6=
EXTT7=
EXTT8=
EXTT9=
EXTT10=
EXTT11=
EXTT12=
EXTT13=
EXTT14=
EXTT15=
EXTT16=with Happy Fats and his Rayne-bo Ramblers
EXTT17=
EXTT18=
EXTT19=
EXTT20=
EXTT21=
EXTT22=
EXTT23=
PLAYORDER=
